<svg xmlns="http://www.w3.org/2000/svg" height="183.881" width="225.121"><g stroke="#3e4147" stroke-linecap="round" stroke-linejoin="round" stroke-width="2.843"><path d="M6.044 110.645l41.407 71.148s113.872-72.806 171.297-106.266c-14.125-22.423-24.403-53.224-44.525-71.372-32.052 17.812-62.02 37.54-93.868 57.876-14.747 9.42-74.311 48.614-74.311 48.614z" fill="#b5c933"/><path d="M26.746 107.354s4.392 10.308-3.021 17.382l22.161 35.518s5.257-2.681 13.642 2.908l139.433-86.998s-5.946-9.833 1.626-15.696c0 0-17.25-32.88-22.307-37.06 0 0-10.887 4.11-15.07-3.239z" fill="#cedd3e"/><g fill="#b5c933" transform="rotate(-30 -8293.287 19450.05)"><ellipse cx="27.334" cy="25.604" rx="27.334" ry="25.604" transform="rotate(-1.961 204815.183 -248904.3)"/><path d="M8671.167 6878.612c-.93-11.047-25.139 3.6-9.5 8.127 3.683 1.067 9.061.16 11.3 4.316 2.59 4.8-3.676 9.595-7.8 9.814-4.461.236-9.317-2.464-8.8-7.482"/><path d="M8662.111 6870.747s.315 14.585.533 21.423c.113 3.515-.336 7.4.149 10.764M8666.544 6870.563c.37 10.82.922 22 .509 32.74"/></g></g></svg>
